<?xml version="1.0" encoding="UTF-8" standalone="no"?>
<svg width="19px" height="21px" viewBox="0 0 19 21" version="1.1" xmlns="http://www.w3.org/2000/svg" xmlns:xlink="http://www.w3.org/1999/xlink" xmlns:sketch="http://www.bohemiancoding.com/sketch/ns">
    <!-- Generator: Sketch 3.2.2 (9983) - http://www.bohemiancoding.com/sketch -->
    <title>ic_bag</title>
    <desc>Created with Sketch.</desc>
    <defs></defs>
    <g id="Page-1" stroke="none" stroke-width="1" fill="none" fill-rule="evenodd" sketch:type="MSPage">
        <g id="Home-1" sketch:type="MSArtboardGroup" transform="translate(-976.000000, -82.000000)" fill="#333333">
            <g id="Navbar" sketch:type="MSLayerGroup" transform="translate(0.000000, 40.000000)">
                <g id="MY-BAG-+-Imported-Layers" transform="translate(973.000000, 41.000000)" sketch:type="MSShapeGroup">
                    <g id="ic_bag">
                        <g id="Imported-Layers" transform="translate(3.000000, 2.000000)">
                            <path d="M16.0517241,6.66666667 L0.327586207,6.66666667 C0.146758621,6.66666667 0,6.81566667 0,7 L0,19.6666667 C0,19.851 0.146758621,20 0.327586207,20 L16.0517241,20 C16.2325517,20 16.3793103,19.851 16.3793103,19.6666667 L16.3793103,7 C16.3793103,6.81566667 16.2325517,6.66666667 16.0517241,6.66666667" id="Fill-1"></path>
                            <path d="M4.25862069,5.71033333 C4.43944828,5.71033333 4.5862069,5.56133333 4.5862069,5.377 L4.5862069,4.116 C4.5862069,2.11733333 5.8732931,0.666666667 7.64684483,0.666666667 C9.53931034,0.666666667 11.137931,2.246 11.137931,4.116 L11.137931,5.377 C11.137931,5.56133333 11.2846897,5.71033333 11.4655172,5.71033333 C11.6463448,5.71033333 11.7931034,5.56133333 11.7931034,5.377 L11.7931034,4.116 C11.7931034,1.88466667 9.89441379,0 7.64684483,0 C5.49362069,0 3.93103448,1.731 3.93103448,4.116 L3.93103448,5.377 C3.93103448,5.56133333 4.0777931,5.71033333 4.25862069,5.71033333" id="Fill-2" stroke="#333333"></path>
                            <path d="M18.576431,2.58966667 L16.8241724,0.806 C16.7000172,0.679 16.4995345,0.675 16.3704655,0.797 L13.2086034,3.76966667 C13.1417759,3.83266667 13.1034483,3.92133333 13.1034483,4.01433333 L13.1034483,5.66666667 C13.1034483,5.851 13.2502069,6 13.4310345,6 L15.4243966,6 C15.5085862,6 15.5898276,5.96666667 15.6507586,5.90766667 L18.5711897,3.066 C18.635069,3.00433333 18.671431,2.91866667 18.6724138,2.829 C18.6733966,2.73933333 18.6386724,2.653 18.576431,2.58966667" id="Fill-3"></path>
                        </g>
                    </g>
                </g>
            </g>
        </g>
    </g>
</svg>