<?xml version="1.0" encoding="UTF-8" standalone="no"?>
<svg width="12px" height="7px" viewBox="0 0 12 7" version="1.1" xmlns="http://www.w3.org/2000/svg" xmlns:xlink="http://www.w3.org/1999/xlink" xmlns:sketch="http://www.bohemiancoding.com/sketch/ns">
    <!-- Generator: Sketch 3.3 (11970) - http://www.bohemiancoding.com/sketch -->
    <title>Imported Layers</title>
    <desc>Created with Sketch.</desc>
    <defs></defs>
    <g id="Page-1" stroke="none" stroke-width="1" fill="none" fill-rule="evenodd" sketch:type="MSPage">
        <g id="Artboard-2" sketch:type="MSArtboardGroup">
            <g id="Imported-Layers" sketch:type="MSLayerGroup">
                <path d="M0.163,0.154 L11.891,0.154 L11.891,6.331 L0.163,6.331 L0.163,0.154 Z" id="Fill-1" fill="#FFFFFF" sketch:type="MSShapeGroup"></path>
                <path d="M4.86,0.154 L11.891,0.154 L11.891,0.629 L4.86,0.629 L4.86,0.154 Z" id="Fill-2" fill="#AC2735" sketch:type="MSShapeGroup"></path>
                <path d="M4.86,1.087 L11.891,1.087 L11.891,1.563 L4.86,1.563 L4.86,1.087 Z" id="Fill-3" fill="#AC2735" sketch:type="MSShapeGroup"></path>
                <path d="M4.86,2.024 L11.891,2.024 L11.891,2.499 L4.86,2.499 L4.86,2.024 Z" id="Fill-4" fill="#AC2735" sketch:type="MSShapeGroup"></path>
                <path d="M4.86,2.945 L11.891,2.945 L11.891,3.42 L4.86,3.42 L4.86,2.945 Z" id="Fill-5" fill="#AC2735" sketch:type="MSShapeGroup"></path>
                <path d="M0.163,3.865 L11.891,3.865 L11.891,4.34 L0.163,4.34 L0.163,3.865 Z" id="Fill-6" fill="#AC2735" sketch:type="MSShapeGroup"></path>
                <path d="M0.163,4.851 L11.891,4.851 L11.891,5.326 L0.163,5.326 L0.163,4.851 Z" id="Fill-7" fill="#AC2735" sketch:type="MSShapeGroup"></path>
                <path d="M0.163,5.855 L11.891,5.855 L11.891,6.33 L0.163,6.33 L0.163,5.855 Z" id="Fill-8" fill="#AC2735" sketch:type="MSShapeGroup"></path>
                <path d="M0.163,0.154 L4.871,0.154 L4.871,3.409 L0.163,3.409 L0.163,0.154 Z" id="Fill-9" fill="#20294F" sketch:type="MSShapeGroup"></path>
                <path d="M0.376,0.429 L0.513,0.429 L0.563,0.286 L0.619,0.429 L0.755,0.429 L0.652,0.524 L0.69,0.667 L0.565,0.587 L0.45,0.667 L0.483,0.524 L0.376,0.429" id="Fill-10" fill="#FFFFFF" sketch:type="MSShapeGroup"></path>
                <path d="M1.147,0.429 L1.284,0.429 L1.335,0.286 L1.39,0.429 L1.526,0.429 L1.423,0.524 L1.461,0.667 L1.336,0.587 L1.22,0.667 L1.254,0.524 L1.147,0.429" id="Fill-11" fill="#FFFFFF" sketch:type="MSShapeGroup"></path>
                <path d="M1.945,0.429 L2.082,0.429 L2.132,0.286 L2.189,0.429 L2.324,0.429 L2.221,0.524 L2.259,0.667 L2.135,0.587 L2.019,0.667 L2.052,0.524 L1.945,0.429" id="Fill-12" fill="#FFFFFF" sketch:type="MSShapeGroup"></path>
                <path d="M2.716,0.429 L2.853,0.429 L2.904,0.286 L2.959,0.429 L3.095,0.429 L2.992,0.524 L3.03,0.667 L2.905,0.587 L2.79,0.667 L2.824,0.524 L2.716,0.429" id="Fill-13" fill="#FFFFFF" sketch:type="MSShapeGroup"></path>
                <path d="M3.493,0.429 L3.63,0.429 L3.68,0.286 L3.736,0.429 L3.872,0.429 L3.769,0.524 L3.806,0.667 L3.682,0.587 L3.566,0.667 L3.6,0.524 L3.493,0.429" id="Fill-14" fill="#FFFFFF" sketch:type="MSShapeGroup"></path>
                <path d="M4.286,0.429 L4.422,0.429 L4.473,0.286 L4.528,0.429 L4.664,0.429 L4.561,0.524 L4.599,0.667 L4.475,0.587 L4.359,0.667 L4.393,0.524 L4.286,0.429" id="Fill-15" fill="#FFFFFF" sketch:type="MSShapeGroup"></path>
                <path d="M0.762,0.773 L0.899,0.773 L0.949,0.629 L1.004,0.773 L1.14,0.773 L1.037,0.867 L1.075,1.01 L0.951,0.93 L0.835,1.01 L0.869,0.867 L0.762,0.773" id="Fill-16" fill="#FFFFFF" sketch:type="MSShapeGroup"></path>
                <path d="M1.533,0.773 L1.669,0.773 L1.72,0.629 L1.775,0.773 L1.911,0.773 L1.808,0.867 L1.846,1.01 L1.722,0.93 L1.606,1.01 L1.64,0.867 L1.533,0.773" id="Fill-17" fill="#FFFFFF" sketch:type="MSShapeGroup"></path>
                <path d="M2.331,0.773 L2.468,0.773 L2.518,0.629 L2.574,0.773 L2.709,0.773 L2.606,0.867 L2.644,1.01 L2.52,0.93 L2.404,1.01 L2.438,0.867 L2.331,0.773" id="Fill-18" fill="#FFFFFF" sketch:type="MSShapeGroup"></path>
                <path d="M3.102,0.773 L3.239,0.773 L3.289,0.629 L3.345,0.773 L3.48,0.773 L3.377,0.867 L3.415,1.01 L3.291,0.93 L3.175,1.01 L3.209,0.867 L3.102,0.773" id="Fill-19" fill="#FFFFFF" sketch:type="MSShapeGroup"></path>
                <path d="M3.878,0.773 L4.015,0.773 L4.065,0.629 L4.121,0.773 L4.257,0.773 L4.154,0.867 L4.192,1.01 L4.067,0.93 L3.952,1.01 L3.985,0.867 L3.878,0.773" id="Fill-20" fill="#FFFFFF" sketch:type="MSShapeGroup"></path>
                <path d="M0.376,1.076 L0.513,1.076 L0.563,0.932 L0.619,1.076 L0.755,1.076 L0.652,1.17 L0.69,1.313 L0.565,1.233 L0.45,1.313 L0.483,1.17 L0.376,1.076" id="Fill-21" fill="#FFFFFF" sketch:type="MSShapeGroup"></path>
                <path d="M1.147,1.076 L1.284,1.076 L1.335,0.932 L1.39,1.076 L1.526,1.076 L1.423,1.17 L1.461,1.313 L1.336,1.233 L1.22,1.313 L1.254,1.17 L1.147,1.076" id="Fill-22" fill="#FFFFFF" sketch:type="MSShapeGroup"></path>
                <path d="M1.945,1.076 L2.082,1.076 L2.132,0.932 L2.189,1.076 L2.324,1.076 L2.221,1.17 L2.259,1.313 L2.135,1.233 L2.019,1.313 L2.052,1.17 L1.945,1.076" id="Fill-23" fill="#FFFFFF" sketch:type="MSShapeGroup"></path>
                <path d="M2.716,1.076 L2.853,1.076 L2.904,0.932 L2.959,1.076 L3.095,1.076 L2.992,1.17 L3.03,1.313 L2.905,1.233 L2.79,1.313 L2.824,1.17 L2.716,1.076" id="Fill-24" fill="#FFFFFF" sketch:type="MSShapeGroup"></path>
                <path d="M3.493,1.076 L3.63,1.076 L3.68,0.932 L3.736,1.076 L3.872,1.076 L3.769,1.17 L3.806,1.313 L3.682,1.233 L3.566,1.313 L3.6,1.17 L3.493,1.076" id="Fill-25" fill="#FFFFFF" sketch:type="MSShapeGroup"></path>
                <path d="M4.286,1.076 L4.422,1.076 L4.473,0.932 L4.528,1.076 L4.664,1.076 L4.561,1.17 L4.599,1.313 L4.475,1.233 L4.359,1.313 L4.393,1.17 L4.286,1.076" id="Fill-26" fill="#FFFFFF" sketch:type="MSShapeGroup"></path>
                <path d="M0.762,1.419 L0.899,1.419 L0.949,1.275 L1.004,1.419 L1.14,1.419 L1.037,1.513 L1.075,1.656 L0.951,1.576 L0.835,1.656 L0.869,1.513 L0.762,1.419" id="Fill-27" fill="#FFFFFF" sketch:type="MSShapeGroup"></path>
                <path d="M1.533,1.419 L1.669,1.419 L1.72,1.275 L1.775,1.419 L1.911,1.419 L1.808,1.513 L1.846,1.656 L1.722,1.576 L1.606,1.656 L1.64,1.513 L1.533,1.419" id="Fill-28" fill="#FFFFFF" sketch:type="MSShapeGroup"></path>
                <path d="M2.331,1.419 L2.468,1.419 L2.518,1.275 L2.574,1.419 L2.709,1.419 L2.606,1.513 L2.644,1.656 L2.52,1.576 L2.404,1.656 L2.438,1.513 L2.331,1.419" id="Fill-29" fill="#FFFFFF" sketch:type="MSShapeGroup"></path>
                <path d="M3.102,1.419 L3.239,1.419 L3.289,1.275 L3.345,1.419 L3.48,1.419 L3.377,1.513 L3.415,1.656 L3.291,1.576 L3.175,1.656 L3.209,1.513 L3.102,1.419" id="Fill-30" fill="#FFFFFF" sketch:type="MSShapeGroup"></path>
                <path d="M3.878,1.419 L4.015,1.419 L4.065,1.275 L4.121,1.419 L4.257,1.419 L4.154,1.513 L4.192,1.656 L4.067,1.576 L3.952,1.656 L3.985,1.513 L3.878,1.419" id="Fill-31" fill="#FFFFFF" sketch:type="MSShapeGroup"></path>
                <path d="M0.376,1.732 L0.513,1.732 L0.563,1.588 L0.619,1.732 L0.755,1.732 L0.652,1.827 L0.69,1.97 L0.565,1.89 L0.45,1.97 L0.483,1.827 L0.376,1.732" id="Fill-32" fill="#FFFFFF" sketch:type="MSShapeGroup"></path>
                <path d="M1.147,1.732 L1.284,1.732 L1.335,1.588 L1.39,1.732 L1.526,1.732 L1.423,1.827 L1.461,1.97 L1.336,1.89 L1.22,1.97 L1.254,1.827 L1.147,1.732" id="Fill-33" fill="#FFFFFF" sketch:type="MSShapeGroup"></path>
                <path d="M1.945,1.732 L2.082,1.732 L2.132,1.588 L2.189,1.732 L2.324,1.732 L2.221,1.827 L2.259,1.97 L2.135,1.89 L2.019,1.97 L2.052,1.827 L1.945,1.732" id="Fill-34" fill="#FFFFFF" sketch:type="MSShapeGroup"></path>
                <path d="M2.716,1.732 L2.853,1.732 L2.904,1.588 L2.959,1.732 L3.095,1.732 L2.992,1.827 L3.03,1.97 L2.905,1.89 L2.79,1.97 L2.824,1.827 L2.716,1.732" id="Fill-35" fill="#FFFFFF" sketch:type="MSShapeGroup"></path>
                <path d="M3.493,1.732 L3.63,1.732 L3.68,1.588 L3.736,1.732 L3.872,1.732 L3.769,1.827 L3.806,1.97 L3.682,1.89 L3.566,1.97 L3.6,1.827 L3.493,1.732" id="Fill-36" fill="#FFFFFF" sketch:type="MSShapeGroup"></path>
                <path d="M4.286,1.732 L4.422,1.732 L4.473,1.588 L4.528,1.732 L4.664,1.732 L4.561,1.827 L4.599,1.97 L4.475,1.89 L4.359,1.97 L4.393,1.827 L4.286,1.732" id="Fill-37" fill="#FFFFFF" sketch:type="MSShapeGroup"></path>
                <path d="M0.762,2.076 L0.899,2.076 L0.949,1.932 L1.004,2.076 L1.14,2.076 L1.037,2.17 L1.075,2.313 L0.951,2.233 L0.835,2.313 L0.869,2.17 L0.762,2.076" id="Fill-38" fill="#FFFFFF" sketch:type="MSShapeGroup"></path>
                <path d="M1.533,2.076 L1.669,2.076 L1.72,1.932 L1.775,2.076 L1.911,2.076 L1.808,2.17 L1.846,2.313 L1.722,2.233 L1.606,2.313 L1.64,2.17 L1.533,2.076" id="Fill-39" fill="#FFFFFF" sketch:type="MSShapeGroup"></path>
                <path d="M2.331,2.076 L2.468,2.076 L2.518,1.932 L2.574,2.076 L2.709,2.076 L2.606,2.17 L2.644,2.313 L2.52,2.233 L2.404,2.313 L2.438,2.17 L2.331,2.076" id="Fill-40" fill="#FFFFFF" sketch:type="MSShapeGroup"></path>
                <path d="M3.102,2.076 L3.239,2.076 L3.289,1.932 L3.345,2.076 L3.48,2.076 L3.377,2.17 L3.415,2.313 L3.291,2.233 L3.175,2.313 L3.209,2.17 L3.102,2.076" id="Fill-41" fill="#FFFFFF" sketch:type="MSShapeGroup"></path>
                <path d="M3.878,2.076 L4.015,2.076 L4.065,1.932 L4.121,2.076 L4.257,2.076 L4.154,2.17 L4.192,2.313 L4.067,2.233 L3.952,2.313 L3.985,2.17 L3.878,2.076" id="Fill-42" fill="#FFFFFF" sketch:type="MSShapeGroup"></path>
                <path d="M0.376,2.38 L0.513,2.38 L0.563,2.236 L0.619,2.38 L0.755,2.38 L0.652,2.474 L0.69,2.618 L0.565,2.537 L0.45,2.618 L0.483,2.474 L0.376,2.38" id="Fill-43" fill="#FFFFFF" sketch:type="MSShapeGroup"></path>
                <path d="M1.147,2.38 L1.284,2.38 L1.335,2.236 L1.39,2.38 L1.526,2.38 L1.423,2.474 L1.461,2.618 L1.336,2.537 L1.22,2.618 L1.254,2.474 L1.147,2.38" id="Fill-44" fill="#FFFFFF" sketch:type="MSShapeGroup"></path>
                <path d="M1.945,2.38 L2.082,2.38 L2.132,2.236 L2.189,2.38 L2.324,2.38 L2.221,2.474 L2.259,2.618 L2.135,2.537 L2.019,2.618 L2.052,2.474 L1.945,2.38" id="Fill-45" fill="#FFFFFF" sketch:type="MSShapeGroup"></path>
                <path d="M2.716,2.38 L2.853,2.38 L2.904,2.236 L2.959,2.38 L3.095,2.38 L2.992,2.474 L3.03,2.618 L2.905,2.537 L2.79,2.618 L2.824,2.474 L2.716,2.38" id="Fill-46" fill="#FFFFFF" sketch:type="MSShapeGroup"></path>
                <path d="M3.493,2.38 L3.63,2.38 L3.68,2.236 L3.736,2.38 L3.872,2.38 L3.769,2.474 L3.806,2.618 L3.682,2.537 L3.566,2.618 L3.6,2.474 L3.493,2.38" id="Fill-47" fill="#FFFFFF" sketch:type="MSShapeGroup"></path>
                <path d="M4.286,2.38 L4.422,2.38 L4.473,2.236 L4.528,2.38 L4.664,2.38 L4.561,2.474 L4.599,2.618 L4.475,2.537 L4.359,2.618 L4.393,2.474 L4.286,2.38" id="Fill-48" fill="#FFFFFF" sketch:type="MSShapeGroup"></path>
                <path d="M0.376,3.02 L0.513,3.02 L0.563,2.877 L0.619,3.02 L0.755,3.02 L0.652,3.115 L0.69,3.258 L0.565,3.178 L0.45,3.258 L0.483,3.115 L0.376,3.02" id="Fill-49" fill="#FFFFFF" sketch:type="MSShapeGroup"></path>
                <path d="M1.147,3.02 L1.284,3.02 L1.335,2.877 L1.39,3.02 L1.526,3.02 L1.423,3.115 L1.461,3.258 L1.336,3.178 L1.22,3.258 L1.254,3.115 L1.147,3.02" id="Fill-50" fill="#FFFFFF" sketch:type="MSShapeGroup"></path>
                <path d="M1.945,3.02 L2.082,3.02 L2.132,2.877 L2.189,3.02 L2.324,3.02 L2.221,3.115 L2.259,3.258 L2.135,3.178 L2.019,3.258 L2.052,3.115 L1.945,3.02" id="Fill-51" fill="#FFFFFF" sketch:type="MSShapeGroup"></path>
                <path d="M2.716,3.02 L2.853,3.02 L2.904,2.877 L2.959,3.02 L3.095,3.02 L2.992,3.115 L3.03,3.258 L2.905,3.178 L2.79,3.258 L2.824,3.115 L2.716,3.02" id="Fill-52" fill="#FFFFFF" sketch:type="MSShapeGroup"></path>
                <path d="M3.493,3.02 L3.63,3.02 L3.68,2.877 L3.736,3.02 L3.872,3.02 L3.769,3.115 L3.806,3.258 L3.682,3.178 L3.566,3.258 L3.6,3.115 L3.493,3.02" id="Fill-53" fill="#FFFFFF" sketch:type="MSShapeGroup"></path>
                <path d="M4.286,3.02 L4.422,3.02 L4.473,2.877 L4.528,3.02 L4.664,3.02 L4.561,3.115 L4.599,3.258 L4.475,3.178 L4.359,3.258 L4.393,3.115 L4.286,3.02" id="Fill-54" fill="#FFFFFF" sketch:type="MSShapeGroup"></path>
                <path d="M0.762,2.723 L0.899,2.723 L0.949,2.58 L1.004,2.723 L1.14,2.723 L1.037,2.818 L1.075,2.961 L0.951,2.881 L0.835,2.961 L0.869,2.818 L0.762,2.723" id="Fill-55" fill="#FFFFFF" sketch:type="MSShapeGroup"></path>
                <path d="M1.533,2.723 L1.669,2.723 L1.72,2.58 L1.775,2.723 L1.911,2.723 L1.808,2.818 L1.846,2.961 L1.722,2.881 L1.606,2.961 L1.64,2.818 L1.533,2.723" id="Fill-56" fill="#FFFFFF" sketch:type="MSShapeGroup"></path>
                <path d="M2.331,2.723 L2.468,2.723 L2.518,2.58 L2.574,2.723 L2.709,2.723 L2.606,2.818 L2.644,2.961 L2.52,2.881 L2.404,2.961 L2.438,2.818 L2.331,2.723" id="Fill-57" fill="#FFFFFF" sketch:type="MSShapeGroup"></path>
                <path d="M3.102,2.723 L3.239,2.723 L3.289,2.58 L3.345,2.723 L3.48,2.723 L3.377,2.818 L3.415,2.961 L3.291,2.881 L3.175,2.961 L3.209,2.818 L3.102,2.723" id="Fill-58" fill="#FFFFFF" sketch:type="MSShapeGroup"></path>
                <path d="M3.878,2.723 L4.015,2.723 L4.065,2.58 L4.121,2.723 L4.257,2.723 L4.154,2.818 L4.192,2.961 L4.067,2.881 L3.952,2.961 L3.985,2.818 L3.878,2.723" id="Fill-59" fill="#FFFFFF" sketch:type="MSShapeGroup"></path>
            </g>
        </g>
    </g>
</svg>