<?xml version="1.0" encoding="UTF-8" standalone="no"?>
<svg width="11px" height="24px" viewBox="0 0 11 24" version="1.1" xmlns="http://www.w3.org/2000/svg" xmlns:xlink="http://www.w3.org/1999/xlink" xmlns:sketch="http://www.bohemiancoding.com/sketch/ns">
    <!-- Generator: Sketch 3.2.2 (9983) - http://www.bohemiancoding.com/sketch -->
    <title>ic_fb</title>
    <desc>Created with Sketch.</desc>
    <defs></defs>
    <g id="Page-1" stroke="none" stroke-width="1" fill="none" fill-rule="evenodd" sketch:type="MSPage">
        <g id="Home-1" sketch:type="MSArtboardGroup" transform="translate(-1015.000000, -1810.000000)" fill="#AAAAAA">
            <g id="Footer" sketch:type="MSLayerGroup" transform="translate(-9.000000, 1534.000000)">
                <g id="ic_fb" transform="translate(1009.000000, 268.000000)" sketch:type="MSShapeGroup">
                    <path d="M22.1411022,8.80922151 C21.4131022,8.80922151 20.7142222,8.89701505 19.8988622,9.21892473 C18.2390222,9.8920086 17.3945422,11.4722925 17.3945422,13.9305118 L17.3945422,16.3302022 L15.0649422,16.3302022 L15.0649422,20.3394409 L17.3945422,20.3394409 L17.3945422,31.8989247 L22.1411022,31.8989247 L22.1411022,20.3394409 L25.3734222,20.3394409 L25.8102222,16.3302022 L22.1411022,16.3302022 L22.1411022,14.5158022 C22.1411022,13.9597763 22.1993422,13.5500731 22.3449422,13.315957 C22.5487822,12.9647828 22.9564622,12.7891957 23.5971022,12.7891957 L25.7519822,12.7891957 L25.7519822,8.80922151 L22.1411022,8.80922151 Z" id="Path"></path>
                </g>
            </g>
        </g>
    </g>
</svg>