<?xml version="1.0" encoding="UTF-8" standalone="no"?>
<svg width="24px" height="24px" viewBox="0 0 24 24" version="1.1" xmlns="http://www.w3.org/2000/svg" xmlns:xlink="http://www.w3.org/1999/xlink" xmlns:sketch="http://www.bohemiancoding.com/sketch/ns">
    <!-- Generator: Sketch 3.2.2 (9983) - http://www.bohemiancoding.com/sketch -->
    <title>ic_insta</title>
    <desc>Created with Sketch.</desc>
    <defs></defs>
    <g id="Page-1" stroke="none" stroke-width="1" fill="none" fill-rule="evenodd" sketch:type="MSPage">
        <g id="Home-1" sketch:type="MSArtboardGroup" transform="translate(-1108.000000, -1810.000000)" fill="#AAAAAA">
            <g id="Footer" sketch:type="MSLayerGroup" transform="translate(-9.000000, 1534.000000)">
                <g id="ic_insta" transform="translate(1109.000000, 268.000000)" sketch:type="MSShapeGroup">
                    <path d="M25.3666558,15.2 L32,15.2 L32,11.6 C32,9.6117749 30.3880256,8 28.4069575,8 L11.5930425,8 C11.4602218,8 11.3290844,8.00723892 11.2,8.02134268 L11.2,8.02134268 L11.2,12.8 L10.4,12.8 L10.4,8.20363334 C9.00204906,8.69744288 8,10.0339944 8,11.6 L8,15.2 L14.6333442,15.2 C15.9517135,13.7270015 17.8676003,12.8 20,12.8 C22.1323997,12.8 24.0482865,13.7270015 25.3666558,15.2 L25.3666558,15.2 Z M26.4515844,16.8 L32,16.8 L32,25.9925575 C32,29.3175342 29.3162587,32 26.0056959,32 L13.9943041,32 C10.6832456,32 8,29.3103764 8,25.9925575 L8,16.8 L13.5484156,16.8 C13.0693648,17.7639672 12.8,18.8505268 12.8,20 C12.8,23.9764504 16.0235496,27.2 20,27.2 C23.9764504,27.2 27.2,23.9764504 27.2,20 C27.2,18.8505268 26.9306352,17.7639672 26.4515844,16.8 L26.4515844,16.8 Z M13.6,8 L13.6,12.8 L14.4,12.8 L14.4,8 L13.6,8 Z M12,8 L12,12.8 L12.8,12.8 L12.8,8 L12,8 Z M26.6093689,9.6 C26.0519098,9.6 25.6,10.0433532 25.6,10.6093689 L25.6,12.5906311 C25.6,13.1480902 26.0433532,13.6 26.6093689,13.6 L28.5906311,13.6 C29.1480902,13.6 29.6,13.1566468 29.6,12.5906311 L29.6,10.6093689 C29.6,10.0519098 29.1566468,9.6 28.5906311,9.6 L26.6093689,9.6 Z M20,25.6 C23.0927948,25.6 25.6,23.0927948 25.6,20 C25.6,16.9072052 23.0927948,14.4 20,14.4 C16.9072052,14.4 14.4,16.9072052 14.4,20 C14.4,23.0927948 16.9072052,25.6 20,25.6 Z" id="instagram_L"></path>
                </g>
            </g>
        </g>
    </g>
</svg>