<?xml version="1.0" encoding="UTF-8" standalone="no"?>
<svg width="21px" height="20px" viewBox="0 0 21 20" version="1.1" xmlns="http://www.w3.org/2000/svg" xmlns:xlink="http://www.w3.org/1999/xlink" xmlns:sketch="http://www.bohemiancoding.com/sketch/ns">
    <!-- Generator: Sketch 3.2.2 (9983) - http://www.bohemiancoding.com/sketch -->
    <title>ic_search</title>
    <desc>Created with Sketch.</desc>
    <defs></defs>
    <g id="Page-1" stroke="none" stroke-width="1" fill="none" fill-rule="evenodd" sketch:type="MSPage">
        <g id="Home-1" sketch:type="MSArtboardGroup" transform="translate(-1117.000000, -83.000000)" stroke="#333333" fill="#333333">
            <g id="Navbar" sketch:type="MSLayerGroup" transform="translate(0.000000, 40.000000)">
                <g id="ic_search" transform="translate(1116.000000, 41.000000)" sketch:type="MSShapeGroup">
                    <path d="M21.1424625,20.4189 L14.2723506,13.5485 C15.241038,12.38 15.8243404,10.8812167 15.8243404,9.24816667 C15.8243404,5.52701667 12.7969944,2.5 9.0761456,2.5 C5.3549801,2.5 2.32795082,5.52701667 2.32795082,9.24816667 C2.32795082,12.9693167 5.3549801,15.99665 9.0761456,15.99665 C10.7092024,15.99665 12.207992,15.4130333 13.3764969,14.4440333 L20.2469255,21.3144333 C20.370426,21.43825 20.53256,21.5 20.694694,21.5 C20.856828,21.5 21.018962,21.43825 21.1424625,21.3144333 C21.3897802,21.0671167 21.3897802,20.6662167 21.1424625,20.4189 L21.1424625,20.4189 Z M9.0761456,14.7296667 C6.05354968,14.7296667 3.59462276,12.27075 3.59462276,9.24816667 C3.59462276,6.2259 6.05354968,3.76666667 9.0761456,3.76666667 C12.0987415,3.76666667 14.5579851,6.2259 14.5579851,9.24816667 C14.5579851,12.27075 12.0987415,14.7296667 9.0761456,14.7296667 L9.0761456,14.7296667 Z" id="Imported-Layers"></path>
                </g>
            </g>
        </g>
    </g>
</svg>