<?xml version="1.0" encoding="UTF-8" standalone="no"?>
<svg width="26px" height="22px" viewBox="0 0 26 22" version="1.1" xmlns="http://www.w3.org/2000/svg" xmlns:xlink="http://www.w3.org/1999/xlink" xmlns:sketch="http://www.bohemiancoding.com/sketch/ns">
    <!-- Generator: Sketch 3.2.2 (9983) - http://www.bohemiancoding.com/sketch -->
    <title>ic_twitter</title>
    <desc>Created with Sketch.</desc>
    <defs></defs>
    <g id="Page-1" stroke="none" stroke-width="1" fill="none" fill-rule="evenodd" sketch:type="MSPage">
        <g id="Home-1" sketch:type="MSArtboardGroup" transform="translate(-1058.000000, -1811.000000)" fill="#AAAAAA">
            <g id="Footer" sketch:type="MSLayerGroup" transform="translate(-9.000000, 1534.000000)">
                <g id="ic_twitter" transform="translate(1059.000000, 268.000000)" sketch:type="MSShapeGroup">
                    <path d="M14.1208979,14.8775252 C17.9662305,16.8188582 21.2159799,16.7068582 21.2159799,16.7068582 C21.2159799,16.7068582 19.9839799,12.4135254 23.7919794,10.509526 C27.5999787,8.60552638 30.2204294,11.8156081 30.2204294,11.8156081 C30.2204294,11.8156081 30.8845608,11.6332976 31.3794038,11.450987 C31.8742469,11.2686764 32.590467,10.9431218 32.590467,10.9431218 L31.4170479,13.0376087 L33.2239356,12.8460783 C33.2239356,12.8460783 33.0012318,13.1716977 32.2780853,13.8349217 C31.5549389,14.4981457 31.2568947,14.8407752 31.2568947,14.8407752 C31.2568947,14.8407752 31.515222,20.0086548 28.7928952,23.9874402 C26.0705679,27.9662254 22.553162,30.3541888 17.4435639,30.8567723 C12.3339659,31.3593557 9.00623218,29.2887725 9.00623218,29.2887725 C9.00623218,29.2887725 11.2409119,29.1612382 12.6648982,28.6167727 C14.0888845,28.0723073 16.1368975,26.6381064 16.1368975,26.6381064 C16.1368975,26.6381064 13.224898,25.7421066 12.1795649,24.7341067 C11.1342318,23.7261069 10.8728985,23.1287737 10.8728985,23.1287737 L13.7475646,23.0914404 C13.7475646,23.0914404 10.7235652,21.4861073 9.86489869,20.2167742 C9.00623209,18.9474412 8.8942322,17.7154414 8.8942322,17.7154414 L11.1043015,18.6079082 C11.1043015,18.6079082 9.26756559,16.1101083 9.00623218,14.1687753 C8.74489889,12.2274424 9.34223212,11.1821092 9.34223212,11.1821092 C9.34223212,11.1821092 10.2755653,12.9361922 14.1208979,14.8775252 Z" id="twitter_L"></path>
                </g>
            </g>
        </g>
    </g>
</svg>