<?xml version="1.0" encoding="UTF-8" standalone="no"?>
<svg width="17px" height="17px" viewBox="0 0 17 17" version="1.1" xmlns="http://www.w3.org/2000/svg" xmlns:xlink="http://www.w3.org/1999/xlink" xmlns:sketch="http://www.bohemiancoding.com/sketch/ns">
    <!-- Generator: Sketch 3.3.2 (12043) - http://www.bohemiancoding.com/sketch -->
    <title>ic_search@1x</title>
    <desc>Created with Sketch.</desc>
    <defs></defs>
    <g id="Page-1" stroke="none" stroke-width="1" fill="none" fill-rule="evenodd" sketch:type="MSPage">
        <g id="Lock-Screen-1v-2" sketch:type="MSArtboardGroup" transform="translate(-20.000000, -44.000000)">
            <g id="ic_search" sketch:type="MSLayerGroup" transform="translate(16.000000, 40.000000)">
                <path d="M0,0 L24,0 L24,24 L0,24 L0,0 Z" id="Bounds" sketch:type="MSShapeGroup"></path>
                <g id="Imported-Layers" transform="translate(4.000000, 4.000000)" sketch:type="MSShapeGroup">
                    <path d="M13.4501197,6.66546667 C13.4501197,10.2713333 10.448,13.1962667 6.74953846,13.1962667 C3.04847863,13.1962667 0.0504615385,10.2713333 0.0504615385,6.66546667 C0.0504615385,3.05933333 3.04847863,0.131866667 6.74953846,0.131866667 C10.448,0.131866667 13.4501197,3.05933333 13.4501197,6.66546667 Z M11.6029677,6.66412449 C11.6029677,9.27772523 9.42953364,11.3960139 6.74962917,11.3960139 C4.06960608,11.3960139 1.89747672,9.27772523 1.89747672,6.66412449 C1.89747672,4.05075504 4.06960608,1.9321194 6.74962917,1.9321194 C9.42953364,1.9321194 11.6029677,4.05075504 11.6029677,6.66412449 Z" id="Fill-1" fill="#FFFFFF"></path>
                    <path d="M15.6326838,14.8341333 L12.3748376,11.6584 C12.094906,11.9577333 11.7891282,12.2332 11.4629744,12.4845333 L14.7521368,15.6925333 C14.8739829,15.8113333 15.0343932,15.8705333 15.1924786,15.8705333 C15.3507009,15.8705333 15.5109744,15.8113333 15.6326838,15.6925333 C15.8761026,15.4561333 15.8761026,15.0705333 15.6326838,14.8341333 L15.6326838,14.8341333 Z" id="Fill-3" fill="#FFFFFF"></path>
                    <path d="M15.6326838,14.8341333 L12.3748376,11.6584 C12.094906,11.9577333 11.7891282,12.2332 11.4629744,12.4845333 L14.7521368,15.6925333 C14.8739829,15.8113333 15.0343932,15.8705333 15.1924786,15.8705333 C15.3507009,15.8705333 15.5109744,15.8113333 15.6326838,15.6925333 C15.8761026,15.4561333 15.8761026,15.0705333 15.6326838,14.8341333 L15.6326838,14.8341333 Z" id="Stroke-4" stroke="#FFFFFF" stroke-width="0.5"></path>
                </g>
            </g>
        </g>
    </g>
</svg>