<?xml version="1.0" encoding="utf-8"?>
<!-- Generator: Adobe Illustrator 18.0.0, SVG Export Plug-In . SVG Version: 6.00 Build 0)  -->
<!DOCTYPE svg PUBLIC "-//W3C//DTD SVG 1.1//EN" "http://www.w3.org/Graphics/SVG/1.1/DTD/svg11.dtd">
<svg version="1.1" id="Layer_1" xmlns:sketch="http://www.bohemiancoding.com/sketch/ns"
	 xmlns="http://www.w3.org/2000/svg" xmlns:xlink="http://www.w3.org/1999/xlink" x="0px" y="0px" viewBox="-2 -1.5 10 10"
	 enable-background="new -2 -1.5 10 10" xml:space="preserve">
<title>ic_collapse-open</title>
<desc>Created with Sketch.</desc>
<g id="Page-1" sketch:type="MSPage">
	<g id="ic_collapse-open" transform="translate(-2.000000, -2.000000)" sketch:type="MSLayerGroup">
		<path id="Fill-2" sketch:type="MSShapeGroup" stroke="#000000" stroke-width="0.25" d="M7.8,5.2c0,0-0.1,0-0.1,0H2.3
			c-0.1,0-0.2-0.1-0.2-0.2c0-0.1,0.1-0.2,0.2-0.2l5.3,0c0.1,0,0.2,0.1,0.2,0.2C7.8,5.2,7.8,5.2,7.8,5.2"/>
		<path id="Fill-3" sketch:type="MSShapeGroup" stroke="#000000" stroke-width="0.25" d="M5,8C4.9,8,4.8,7.9,4.8,7.8l0-5.3
			c0-0.1,0.1-0.2,0.2-0.2c0.1,0,0.2,0.1,0.2,0.2v5.3c0,0,0,0.1,0,0.1C5.1,7.9,5,8,5,8z"/>
	</g>
</g>
</svg>
